<?xml version="1.0" encoding="UTF-8"?>
<svg xmlns="http://www.w3.org/2000/svg" xmlns:xlink="http://www.w3.org/1999/xlink" width="2108" height="2108" viewBox="0 0 2108 2108">
<path fill-rule="nonzero" fill="rgb(0%, 0%, 0%)" fill-opacity="1" d="M 2102.019531 949.640625 C 2159.449219 1528.648438 1736.621094 2044.589844 1157.609375 2102.019531 C 578.59375 2159.449219 62.652344 1736.621094 5.222656 1157.605469 C -52.207031 578.589844 370.621094 62.648438 949.632812 5.21875 C 1528.648438 -52.210938 2044.589844 370.621094 2102.019531 949.640625 M 1941.019531 965.601562 L 1941.019531 965.609375 C 1892.410156 475.5 1455.699219 117.609375 965.601562 166.21875 C 475.503906 214.828125 117.605469 651.539062 166.21875 1141.636719 C 214.828125 1631.734375 651.539062 1989.632812 1141.640625 1941.023438 C 1631.738281 1892.414062 1989.628906 1455.703125 1941.019531 965.601562 Z M 1941.019531 965.601562 "/>
<path fill-rule="nonzero" fill="rgb(0%, 0%, 0%)" fill-opacity="1" d="M 939.53125 1436.824219 L 943.199219 1394.9375 C 955.195312 1239.21875 975.863281 1127.648438 1005.191406 1060.21875 C 1021.710938 1021.25 1043.300781 989.851562 1069.960938 966.019531 C 1083.128906 953.960938 1096.828125 943.058594 1111.058594 933.308594 L 1212.25 866.28125 C 1223.980469 857.109375 1234.191406 847.019531 1242.890625 835.988281 C 1268.480469 800.5 1276.460938 757.191406 1266.820312 706.070312 C 1257.148438 654.898438 1233.671875 613.160156 1196.371094 580.851562 C 1169.441406 557.839844 1131.238281 546.558594 1081.75 547 C 1016.398438 548.910156 954.429688 570.839844 895.820312 612.789062 C 880.734375 623.320312 868.714844 641.679688 859.765625 667.851562 C 855.417969 690.488281 855.164062 713.371094 858.996094 736.5 L 712.246094 724.589844 C 705.335938 636.878906 729.472656 558.148438 784.65625 488.410156 C 833.78125 428.78125 884.214844 390.820312 935.957031 374.511719 C 995.109375 352.648438 1062.941406 351.058594 1139.441406 369.71875 C 1153.648438 370.539062 1196.308594 385.601562 1267.390625 414.898438 C 1324.601562 441.441406 1374.601562 472.601562 1417.398438 508.351562 C 1482.089844 562.789062 1512.371094 616.921875 1508.230469 670.738281 C 1507.210938 688.398438 1503.449219 705.738281 1496.949219 722.769531 L 1485.710938 748 C 1477.039062 764.640625 1466.769531 780.839844 1454.890625 796.578125 C 1449.820312 805.140625 1430.308594 827.519531 1396.351562 863.71875 L 1247.640625 1011.210938 C 1212.5 1052.878906 1190.398438 1084.980469 1181.339844 1107.511719 C 1151.300781 1163.082031 1128.339844 1269.648438 1112.449219 1427.203125 L 939.53125 1436.824219 "/>
<path fill-rule="nonzero" fill="rgb(0%, 0%, 0%)" fill-opacity="1" d="M 1149.921875 1681.035156 L 1039.878906 1686.945312 L 929.847656 1692.851562 C 925.90625 1619.492188 921.96875 1546.132812 918.027344 1472.773438 C 991.386719 1468.835938 1064.75 1464.898438 1138.109375 1460.960938 C 1142.039062 1534.320312 1145.980469 1607.675781 1149.921875 1681.035156 "/>
</svg>
